<svg xmlns="http://www.w3.org/2000/svg" xmlns:xlink="http://www.w3.org/1999/xlink" width="480" zoomAndPan="magnify" viewBox="0 0 360 359.999987" height="480" preserveAspectRatio="xMidYMid meet" version="1.0"><defs><clipPath id="e4493cf86c"><path d="M 82.035156 37.460938 L 159.890625 37.460938 L 159.890625 71.945312 L 82.035156 71.945312 Z M 82.035156 37.460938" clip-rule="nonzero"></path></clipPath><clipPath id="7af31cd052"><path d="M 120.957031 71.945312 L 159.882812 37.460938 L 82.035156 37.460938 Z M 120.957031 71.945312" clip-rule="nonzero"></path></clipPath><clipPath id="7d16f80a96"><path d="M 0.0351562 0.460938 L 77.890625 0.460938 L 77.890625 34.945312 L 0.0351562 34.945312 Z M 0.0351562 0.460938" clip-rule="nonzero"></path></clipPath><clipPath id="880e36b6db"><path d="M 38.957031 34.945312 L 77.882812 0.460938 L 0.0351562 0.460938 Z M 38.957031 34.945312" clip-rule="nonzero"></path></clipPath><clipPath id="137e0b1316"><rect x="0" width="78" y="0" height="35"></rect></clipPath><clipPath id="0c58db350f"><path d="M 120.957031 37.460938 L 330.589844 37.460938 L 330.589844 71.945312 L 120.957031 71.945312 Z M 120.957031 37.460938" clip-rule="nonzero"></path></clipPath><clipPath id="844e5118e8"><path d="M 0.957031 0.460938 L 210.589844 0.460938 L 210.589844 34.945312 L 0.957031 34.945312 Z M 0.957031 0.460938" clip-rule="nonzero"></path></clipPath><clipPath id="ea2c4e53a9"><rect x="0" width="211" y="0" height="35"></rect></clipPath><clipPath id="a3d75af9f5"><path d="M 199 42 L 325 42 L 325 160 L 199 160 Z M 199 42" clip-rule="nonzero"></path></clipPath><clipPath id="dbb6a951c6"><path d="M 199.125 136.457031 L 303.8125 42.5 L 324.785156 65.867188 L 220.097656 159.824219 Z M 199.125 136.457031" clip-rule="nonzero"></path></clipPath><clipPath id="8d585c62ab"><path d="M 0 0.480469 L 125.960938 0.480469 L 125.960938 117.839844 L 0 117.839844 Z M 0 0.480469" clip-rule="nonzero"></path></clipPath><clipPath id="cb4bdef8e1"><path d="M 0.125 94.457031 L 104.8125 0.5 L 125.785156 23.867188 L 21.097656 117.824219 Z M 0.125 94.457031" clip-rule="nonzero"></path></clipPath><clipPath id="1153a99983"><rect x="0" width="126" y="0" height="118"></rect></clipPath><clipPath id="e2612acbb1"><path d="M 296.339844 42.550781 L 330.589844 42.550781 L 330.589844 186.488281 L 296.339844 186.488281 Z M 296.339844 42.550781" clip-rule="nonzero"></path></clipPath><clipPath id="143163d19f"><path d="M 0.339844 0.550781 L 34.589844 0.550781 L 34.589844 144.488281 L 0.339844 144.488281 Z M 0.339844 0.550781" clip-rule="nonzero"></path></clipPath><clipPath id="d68324e5ff"><rect x="0" width="35" y="0" height="145"></rect></clipPath><clipPath id="fa099b1c68"><path d="M 268 161 L 331 161 L 331 223 L 268 223 Z M 268 161" clip-rule="nonzero"></path></clipPath><clipPath id="fddd121dc3"><path d="M 268.21875 197.980469 L 308.539062 161.789062 L 330.589844 186.359375 L 290.269531 222.546875 Z M 268.21875 197.980469" clip-rule="nonzero"></path></clipPath><clipPath id="eb70a6ea79"><path d="M 0.078125 0.761719 L 62.71875 0.761719 L 62.71875 61.71875 L 0.078125 61.71875 Z M 0.078125 0.761719" clip-rule="nonzero"></path></clipPath><clipPath id="e6b6af9e26"><path d="M 0.21875 36.980469 L 40.539062 0.789062 L 62.589844 25.359375 L 22.269531 61.546875 Z M 0.21875 36.980469" clip-rule="nonzero"></path></clipPath><clipPath id="58672e171c"><rect x="0" width="63" y="0" height="62"></rect></clipPath><clipPath id="2955781815"><path d="M 196 133 L 220 133 L 220 160 L 196 160 Z M 196 133" clip-rule="nonzero"></path></clipPath><clipPath id="d8223b92c6"><path d="M 196.628906 138.59375 L 202.714844 133.398438 L 223.027344 157.195312 L 216.941406 162.390625 Z M 196.628906 138.59375" clip-rule="nonzero"></path></clipPath><clipPath id="090ee77b94"><path d="M 219.976562 159.785156 L 202.714844 133.398438 L 196.628906 138.59375 Z M 219.976562 159.785156" clip-rule="nonzero"></path></clipPath><clipPath id="1568c78d41"><path d="M 0.558594 0.199219 L 24 0.199219 L 24 26.839844 L 0.558594 26.839844 Z M 0.558594 0.199219" clip-rule="nonzero"></path></clipPath><clipPath id="caae4bd06d"><path d="M 0.628906 5.59375 L 6.714844 0.398438 L 27.027344 24.195312 L 20.941406 29.390625 Z M 0.628906 5.59375" clip-rule="nonzero"></path></clipPath><clipPath id="5224c6edcc"><path d="M 23.976562 26.785156 L 6.714844 0.398438 L 0.628906 5.59375 Z M 23.976562 26.785156" clip-rule="nonzero"></path></clipPath><clipPath id="6e518fba89"><rect x="0" width="24" y="0" height="27"></rect></clipPath><clipPath id="9441f873a0"><path d="M 265 194 L 291 194 L 291 223 L 265 223 Z M 265 194" clip-rule="nonzero"></path></clipPath><clipPath id="494bb28f6a"><path d="M 265.769531 199.875 L 271.855469 194.679688 L 293.425781 219.949219 L 287.339844 225.140625 Z M 265.769531 199.875" clip-rule="nonzero"></path></clipPath><clipPath id="39745605d7"><path d="M 290.378906 222.539062 L 271.855469 194.679688 L 265.769531 199.875 Z M 290.378906 222.539062" clip-rule="nonzero"></path></clipPath><clipPath id="4b9e793c4e"><path d="M 0.679688 0.640625 L 25.398438 0.640625 L 25.398438 28.71875 L 0.679688 28.71875 Z M 0.679688 0.640625" clip-rule="nonzero"></path></clipPath><clipPath id="b8b51139d7"><path d="M 0.769531 5.875 L 6.855469 0.679688 L 28.425781 25.949219 L 22.339844 31.140625 Z M 0.769531 5.875" clip-rule="nonzero"></path></clipPath><clipPath id="d0509d4f70"><path d="M 25.378906 28.539062 L 6.855469 0.679688 L 0.769531 5.875 Z M 25.378906 28.539062" clip-rule="nonzero"></path></clipPath><clipPath id="19a6d48cc7"><rect x="0" width="26" y="0" height="29"></rect></clipPath><clipPath id="66885058be"><path d="M 26.734375 36 L 109.386719 36 L 109.386719 108.960938 L 26.734375 108.960938 Z M 26.734375 36" clip-rule="nonzero"></path></clipPath><clipPath id="2a69d363d2"><path d="M 109.234375 108.960938 L 26.734375 108.960938 L 26.734375 36 Z M 109.234375 108.960938" clip-rule="nonzero"></path></clipPath><clipPath id="464f7fb1ce"><path d="M 0.734375 0 L 83.386719 0 L 83.386719 72.960938 L 0.734375 72.960938 Z M 0.734375 0" clip-rule="nonzero"></path></clipPath><clipPath id="13b3134bcf"><path d="M 83.234375 72.960938 L 0.734375 72.960938 L 0.734375 0 Z M 83.234375 72.960938" clip-rule="nonzero"></path></clipPath><clipPath id="802d3bc163"><rect x="0" width="84" y="0" height="73"></rect></clipPath><clipPath id="0ca31d8252"><path d="M 26.730469 74.492188 L 60.710938 74.492188 L 60.710938 308.132812 L 26.730469 308.132812 Z M 26.730469 74.492188" clip-rule="nonzero"></path></clipPath><clipPath id="4a18ec41b0"><path d="M 0.730469 0.492188 L 34.710938 0.492188 L 34.710938 234.132812 L 0.730469 234.132812 Z M 0.730469 0.492188" clip-rule="nonzero"></path></clipPath><clipPath id="7a2ebfed45"><rect x="0" width="35" y="0" height="235"></rect></clipPath><clipPath id="b3ea7d934e"><path d="M 39 66 L 306 66 L 306 309 L 39 309 Z M 39 66" clip-rule="nonzero"></path></clipPath><clipPath id="93ac351de2"><path d="M 284.050781 308.417969 L 39.453125 90.488281 L 61.03125 66.265625 L 305.628906 284.195312 Z M 284.050781 308.417969" clip-rule="nonzero"></path></clipPath><clipPath id="3f64bcd100"><path d="M 0.359375 0.238281 L 266.761719 0.238281 L 266.761719 242.640625 L 0.359375 242.640625 Z M 0.359375 0.238281" clip-rule="nonzero"></path></clipPath><clipPath id="e2cfd36d60"><path d="M 245.050781 242.417969 L 0.453125 24.488281 L 22.03125 0.265625 L 266.628906 218.195312 Z M 245.050781 242.417969" clip-rule="nonzero"></path></clipPath><clipPath id="21a7443561"><rect x="0" width="267" y="0" height="243"></rect></clipPath><clipPath id="455ff124fc"><path d="M 88.042969 208.566406 L 122.035156 208.566406 L 122.035156 308.136719 L 88.042969 308.136719 Z M 88.042969 208.566406" clip-rule="nonzero"></path></clipPath><clipPath id="9ec5d0a8a5"><path d="M 0.0429688 0.566406 L 34.035156 0.566406 L 34.035156 100.136719 L 0.0429688 100.136719 Z M 0.0429688 0.566406" clip-rule="nonzero"></path></clipPath><clipPath id="e13b5130a8"><rect x="0" width="35" y="0" height="101"></rect></clipPath><clipPath id="1c29bd38ff"><path d="M 150.253906 263.195312 L 183.40625 263.195312 L 183.40625 308.136719 L 150.253906 308.136719 Z M 150.253906 263.195312" clip-rule="nonzero"></path></clipPath><clipPath id="5ef75e0b65"><path d="M 0.253906 0.195312 L 33.40625 0.195312 L 33.40625 45.136719 L 0.253906 45.136719 Z M 0.253906 0.195312" clip-rule="nonzero"></path></clipPath><clipPath id="40f1eeb0ae"><rect x="0" width="34" y="0" height="46"></rect></clipPath><clipPath id="2c79f98b72"><path d="M 88.042969 178.402344 L 122.035156 178.402344 L 122.035156 238.816406 L 88.042969 238.816406 Z M 88.042969 178.402344" clip-rule="nonzero"></path></clipPath><clipPath id="283ad573a4"><path d="M 122.035156 208.5625 L 88.042969 238.726562 L 88.042969 178.402344 Z M 122.035156 208.5625" clip-rule="nonzero"></path></clipPath><clipPath id="de348415c8"><path d="M 0.0429688 0.402344 L 34.035156 0.402344 L 34.035156 60.800781 L 0.0429688 60.800781 Z M 0.0429688 0.402344" clip-rule="nonzero"></path></clipPath><clipPath id="797fb41693"><path d="M 34.035156 30.5625 L 0.0429688 60.726562 L 0.0429688 0.402344 Z M 34.035156 30.5625" clip-rule="nonzero"></path></clipPath><clipPath id="a9ef49e902"><rect x="0" width="35" y="0" height="61"></rect></clipPath><clipPath id="ceb67fdc91"><path d="M 150.253906 233.03125 L 183.40625 233.03125 L 183.40625 293.375 L 150.253906 293.375 Z M 150.253906 233.03125" clip-rule="nonzero"></path></clipPath><clipPath id="d166a24866"><path d="M 183.40625 263.195312 L 150.253906 293.359375 L 150.253906 233.03125 Z M 183.40625 263.195312" clip-rule="nonzero"></path></clipPath><clipPath id="64004a08d7"><path d="M 0.253906 0.03125 L 33.40625 0.03125 L 33.40625 60.375 L 0.253906 60.375 Z M 0.253906 0.03125" clip-rule="nonzero"></path></clipPath><clipPath id="02616d4128"><path d="M 33.40625 30.195312 L 0.253906 60.359375 L 0.253906 0.03125 Z M 33.40625 30.195312" clip-rule="nonzero"></path></clipPath><clipPath id="d4181c52f1"><rect x="0" width="34" y="0" height="61"></rect></clipPath><clipPath id="e4c3199b6d"><path d="M 277 259 L 334 259 L 334 309 L 277 309 Z M 277 259" clip-rule="nonzero"></path></clipPath><clipPath id="73a9e6a7a7"><path d="M 311.5625 333.011719 L 256.179688 283.667969 L 277.882812 259.308594 L 333.265625 308.652344 Z M 311.5625 333.011719" clip-rule="nonzero"></path></clipPath><clipPath id="e1d52b6c8b"><path d="M 283.914062 308.378906 L 277.96875 259.382812 L 333.265625 308.652344 Z M 283.914062 308.378906" clip-rule="nonzero"></path></clipPath><clipPath id="cd783912d9"><path d="M 0.921875 0.199219 L 56.359375 0.199219 L 56.359375 49.878906 L 0.921875 49.878906 Z M 0.921875 0.199219" clip-rule="nonzero"></path></clipPath><clipPath id="34f413c802"><path d="M 34.5625 74.011719 L -20.820312 24.667969 L 0.882812 0.308594 L 56.265625 49.652344 Z M 34.5625 74.011719" clip-rule="nonzero"></path></clipPath><clipPath id="7bf522fdbc"><path d="M 6.914062 49.378906 L 0.96875 0.382812 L 56.265625 49.652344 Z M 6.914062 49.378906" clip-rule="nonzero"></path></clipPath><clipPath id="0cde962579"><rect x="0" width="57" y="0" height="50"></rect></clipPath></defs><g clip-path="url(#e4493cf86c)"><g clip-path="url(#7af31cd052)"><g transform="matrix(1, 0, 0, 1, 82, 37)"><g clip-path="url(#137e0b1316)"><g clip-path="url(#7d16f80a96)"><g clip-path="url(#880e36b6db)"><path fill="#ffffff" d="M 0.0351562 0.460938 L 77.890625 0.460938 L 77.890625 34.945312 L 0.0351562 34.945312 Z M 0.0351562 0.460938" fill-opacity="1" fill-rule="nonzero"></path></g></g></g></g></g></g><g clip-path="url(#0c58db350f)"><g transform="matrix(1, 0, 0, 1, 120, 37)"><g clip-path="url(#ea2c4e53a9)"><g clip-path="url(#844e5118e8)"><path fill="#ffffff" d="M 0.957031 0.460938 L 210.558594 0.460938 L 210.558594 34.945312 L 0.957031 34.945312 Z M 0.957031 0.460938" fill-opacity="1" fill-rule="nonzero"></path></g></g></g></g><g clip-path="url(#a3d75af9f5)"><g clip-path="url(#dbb6a951c6)"><g transform="matrix(1, 0, 0, 1, 199, 42)"><g clip-path="url(#1153a99983)"><g clip-path="url(#8d585c62ab)"><g clip-path="url(#cb4bdef8e1)"><path fill="#ffffff" d="M 0.125 94.457031 L 104.8125 0.503906 L 125.78125 23.867188 L 21.097656 117.824219 Z M 0.125 94.457031" fill-opacity="1" fill-rule="nonzero"></path></g></g></g></g></g></g><g clip-path="url(#e2612acbb1)"><g transform="matrix(1, 0, 0, 1, 296, 42)"><g clip-path="url(#d68324e5ff)"><g clip-path="url(#143163d19f)"><path fill="#ffffff" d="M 0.339844 144.488281 L 0.339844 0.527344 L 34.589844 0.527344 L 34.589844 144.488281 Z M 0.339844 144.488281" fill-opacity="1" fill-rule="nonzero"></path></g></g></g></g><g clip-path="url(#fa099b1c68)"><g clip-path="url(#fddd121dc3)"><g transform="matrix(1, 0, 0, 1, 268, 161)"><g clip-path="url(#58672e171c)"><g clip-path="url(#eb70a6ea79)"><g clip-path="url(#e6b6af9e26)"><path fill="#ffffff" d="M 0.21875 36.980469 L 40.527344 0.800781 L 62.578125 25.371094 L 22.269531 61.546875 Z M 0.21875 36.980469" fill-opacity="1" fill-rule="nonzero"></path></g></g></g></g></g></g><g clip-path="url(#2955781815)"><g clip-path="url(#d8223b92c6)"><g clip-path="url(#090ee77b94)"><g transform="matrix(1, 0, 0, 1, 196, 133)"><g clip-path="url(#6e518fba89)"><g clip-path="url(#1568c78d41)"><g clip-path="url(#caae4bd06d)"><g clip-path="url(#5224c6edcc)"><path fill="#ffffff" d="M 0.628906 5.59375 L 6.714844 0.398438 L 27.027344 24.195312 L 20.941406 29.390625 Z M 0.628906 5.59375" fill-opacity="1" fill-rule="nonzero"></path></g></g></g></g></g></g></g></g><g clip-path="url(#9441f873a0)"><g clip-path="url(#494bb28f6a)"><g clip-path="url(#39745605d7)"><g transform="matrix(1, 0, 0, 1, 265, 194)"><g clip-path="url(#19a6d48cc7)"><g clip-path="url(#4b9e793c4e)"><g clip-path="url(#b8b51139d7)"><g clip-path="url(#d0509d4f70)"><path fill="#ffffff" d="M 0.769531 5.875 L 6.855469 0.679688 L 28.425781 25.949219 L 22.339844 31.140625 Z M 0.769531 5.875" fill-opacity="1" fill-rule="nonzero"></path></g></g></g></g></g></g></g></g><g clip-path="url(#66885058be)"><g clip-path="url(#2a69d363d2)"><g transform="matrix(1, 0, 0, 1, 26, 36)"><g clip-path="url(#802d3bc163)"><g clip-path="url(#464f7fb1ce)"><g clip-path="url(#13b3134bcf)"><path fill="#ffffff" d="M 0.734375 0 L 83.101562 0 L 83.101562 72.960938 L 0.734375 72.960938 Z M 0.734375 0" fill-opacity="1" fill-rule="nonzero"></path></g></g></g></g></g></g><g clip-path="url(#0ca31d8252)"><g transform="matrix(1, 0, 0, 1, 26, 74)"><g clip-path="url(#7a2ebfed45)"><g clip-path="url(#4a18ec41b0)"><path fill="#ffffff" d="M 34.710938 0.492188 L 34.710938 234.132812 L 0.730469 234.132812 L 0.730469 0.492188 Z M 34.710938 0.492188" fill-opacity="1" fill-rule="nonzero"></path></g></g></g></g><g clip-path="url(#b3ea7d934e)"><g clip-path="url(#93ac351de2)"><g transform="matrix(1, 0, 0, 1, 39, 66)"><g clip-path="url(#21a7443561)"><g clip-path="url(#3f64bcd100)"><g clip-path="url(#e2cfd36d60)"><path fill="#ffffff" d="M 245.050781 242.417969 L 0.476562 24.511719 L 22.054688 0.289062 L 266.628906 218.195312 Z M 245.050781 242.417969" fill-opacity="1" fill-rule="nonzero"></path></g></g></g></g></g></g><g clip-path="url(#455ff124fc)"><g transform="matrix(1, 0, 0, 1, 88, 208)"><g clip-path="url(#e13b5130a8)"><g clip-path="url(#9ec5d0a8a5)"><path fill="#ffffff" d="M 34.035156 0.566406 L 34.035156 100.152344 L 0.0429688 100.152344 L 0.0429688 0.566406 Z M 34.035156 0.566406" fill-opacity="1" fill-rule="nonzero"></path></g></g></g></g><g clip-path="url(#1c29bd38ff)"><g transform="matrix(1, 0, 0, 1, 150, 263)"><g clip-path="url(#40f1eeb0ae)"><g clip-path="url(#5ef75e0b65)"><path fill="#ffffff" d="M 33.40625 0.195312 L 33.40625 45.128906 L 0.253906 45.128906 L 0.253906 0.195312 Z M 33.40625 0.195312" fill-opacity="1" fill-rule="nonzero"></path></g></g></g></g><g clip-path="url(#2c79f98b72)"><g clip-path="url(#283ad573a4)"><g transform="matrix(1, 0, 0, 1, 88, 178)"><g clip-path="url(#a9ef49e902)"><g clip-path="url(#de348415c8)"><g clip-path="url(#797fb41693)"><path fill="#ffffff" d="M 34.035156 0.402344 L 34.035156 60.683594 L 0.0429688 60.683594 L 0.0429688 0.402344 Z M 34.035156 0.402344" fill-opacity="1" fill-rule="nonzero"></path></g></g></g></g></g></g><g clip-path="url(#ceb67fdc91)"><g clip-path="url(#d166a24866)"><g transform="matrix(1, 0, 0, 1, 150, 233)"><g clip-path="url(#d4181c52f1)"><g clip-path="url(#64004a08d7)"><g clip-path="url(#02616d4128)"><path fill="#ffffff" d="M 33.40625 0.03125 L 33.40625 60.375 L 0.253906 60.375 L 0.253906 0.03125 Z M 33.40625 0.03125" fill-opacity="1" fill-rule="nonzero"></path></g></g></g></g></g></g><g clip-path="url(#e4c3199b6d)"><g clip-path="url(#73a9e6a7a7)"><g clip-path="url(#e1d52b6c8b)"><g transform="matrix(1, 0, 0, 1, 277, 259)"><g clip-path="url(#0cde962579)"><g clip-path="url(#cd783912d9)"><g clip-path="url(#34f413c802)"><g clip-path="url(#7bf522fdbc)"><path fill="#ffffff" d="M 34.5625 74.011719 L -20.726562 24.753906 L 0.980469 0.394531 L 56.265625 49.652344 Z M 34.5625 74.011719" fill-opacity="1" fill-rule="nonzero"></path></g></g></g></g></g></g></g></g></svg>